<svg xmlns="http://www.w3.org/2000/svg" viewBox="0 0 640 360" role="img" aria-label="Cover illustration for aeroflex-pipe-fitter-contractor">
<style>.s{fill:none;stroke:#12395c;stroke-width:3.5;stroke-linecap:round;stroke-linejoin:round}.t{stroke-width:2}.sa{stroke:#c2571a}.sm{stroke:#7cc4f5}.dash{stroke-dasharray:14 12}.w{fill:#fff}.l{fill:#c3e4fb}.m{fill:#7cc4f5}.d{fill:#12395c}.a{fill:#c2571a}</style>
<rect width="640" height="360" fill="#dcecfb"/>
<g stroke="#12395c" stroke-opacity=".07" stroke-width="1"><line x1="40" y1="0" x2="40" y2="360"/><line x1="80" y1="0" x2="80" y2="360"/><line x1="120" y1="0" x2="120" y2="360"/><line x1="160" y1="0" x2="160" y2="360"/><line x1="200" y1="0" x2="200" y2="360"/><line x1="240" y1="0" x2="240" y2="360"/><line x1="280" y1="0" x2="280" y2="360"/><line x1="320" y1="0" x2="320" y2="360"/><line x1="360" y1="0" x2="360" y2="360"/><line x1="400" y1="0" x2="400" y2="360"/><line x1="440" y1="0" x2="440" y2="360"/><line x1="480" y1="0" x2="480" y2="360"/><line x1="520" y1="0" x2="520" y2="360"/><line x1="560" y1="0" x2="560" y2="360"/><line x1="600" y1="0" x2="600" y2="360"/><line x1="0" y1="40" x2="640" y2="40"/><line x1="0" y1="80" x2="640" y2="80"/><line x1="0" y1="120" x2="640" y2="120"/><line x1="0" y1="160" x2="640" y2="160"/><line x1="0" y1="200" x2="640" y2="200"/><line x1="0" y1="240" x2="640" y2="240"/><line x1="0" y1="280" x2="640" y2="280"/><line x1="0" y1="320" x2="640" y2="320"/></g>
<g transform="translate(320 150) scale(1.12) translate(-320 -150)"><rect class="s w" x="204" y="120" width="16" height="60" rx="8"/><rect class="s l" x="226" y="120" width="16" height="60" rx="8"/><rect class="s w" x="248" y="120" width="16" height="60" rx="8"/><rect class="s l" x="270" y="120" width="16" height="60" rx="8"/><rect class="s w" x="292" y="120" width="16" height="60" rx="8"/><rect class="s l" x="314" y="120" width="16" height="60" rx="8"/><rect class="s w" x="336" y="120" width="16" height="60" rx="8"/><rect class="s l" x="358" y="120" width="16" height="60" rx="8"/><rect class="s w" x="380" y="120" width="16" height="60" rx="8"/><rect class="s l" x="402" y="120" width="16" height="60" rx="8"/><rect class="s w" x="424" y="120" width="16" height="60" rx="8"/><rect class="s d" x="160" y="126" width="40" height="48" rx="4"/><rect class="s w" x="140" y="136" width="22" height="28" rx="3"/><rect class="s d" x="448" y="126" width="40" height="48" rx="4"/><rect class="s w" x="486" y="136" width="22" height="28" rx="3"/><path class="s sa" d="M150 196 v34 h348 v-34"/><path class="s sa" d="M300 222 l14 8 l-14 8"/><path class="s t sm" d="M240 86 q10 -14 0 -28 M320 86 q10 -14 0 -28 M400 86 q10 -14 0 -28"/></g>
</svg>
