<svg xmlns="http://www.w3.org/2000/svg" viewBox="0 0 640 360" role="img" aria-label="Cover illustration for aimtron-bridge-one-span">
<style>.s{fill:none;stroke:#0e4a37;stroke-width:3.5;stroke-linecap:round;stroke-linejoin:round}.t{stroke-width:2}.sa{stroke:#c2571a}.sm{stroke:#5fd3a0}.dash{stroke-dasharray:14 12}.w{fill:#fff}.l{fill:#aeedcb}.m{fill:#5fd3a0}.d{fill:#0e4a37}.a{fill:#c2571a}</style>
<rect width="640" height="360" fill="#cdf5dd"/>
<g stroke="#0e4a37" stroke-opacity=".07" stroke-width="1"><line x1="40" y1="0" x2="40" y2="360"/><line x1="80" y1="0" x2="80" y2="360"/><line x1="120" y1="0" x2="120" y2="360"/><line x1="160" y1="0" x2="160" y2="360"/><line x1="200" y1="0" x2="200" y2="360"/><line x1="240" y1="0" x2="240" y2="360"/><line x1="280" y1="0" x2="280" y2="360"/><line x1="320" y1="0" x2="320" y2="360"/><line x1="360" y1="0" x2="360" y2="360"/><line x1="400" y1="0" x2="400" y2="360"/><line x1="440" y1="0" x2="440" y2="360"/><line x1="480" y1="0" x2="480" y2="360"/><line x1="520" y1="0" x2="520" y2="360"/><line x1="560" y1="0" x2="560" y2="360"/><line x1="600" y1="0" x2="600" y2="360"/><line x1="0" y1="40" x2="640" y2="40"/><line x1="0" y1="80" x2="640" y2="80"/><line x1="0" y1="120" x2="640" y2="120"/><line x1="0" y1="160" x2="640" y2="160"/><line x1="0" y1="200" x2="640" y2="200"/><line x1="0" y1="240" x2="640" y2="240"/><line x1="0" y1="280" x2="640" y2="280"/><line x1="0" y1="320" x2="640" y2="320"/></g>
<g transform="translate(320 150) scale(1.12) translate(-320 -150)"><rect class="s l" x="170" y="60" width="300" height="190" rx="10"/><circle class="s w" cx="186" cy="76" r="5"/><circle class="s w" cx="454" cy="76" r="5"/><circle class="s w" cx="186" cy="234" r="5"/><circle class="s w" cx="454" cy="234" r="5"/><g transform="translate(300 150)"><line class="s t" x1="-18" y1="-38" x2="-18" y2="38"/><line class="s t" x1="-6" y1="-38" x2="-6" y2="38"/><line class="s t" x1="6" y1="-38" x2="6" y2="38"/><line class="s t" x1="18" y1="-38" x2="18" y2="38"/><line class="s t" x1="-38" y1="-18" x2="38" y2="-18"/><line class="s t" x1="-38" y1="-6" x2="38" y2="-6"/><line class="s t" x1="-38" y1="6" x2="38" y2="6"/><line class="s t" x1="-38" y1="18" x2="38" y2="18"/><rect class="s w" x="-28" y="-28" width="56" height="56" rx="6"/><rect class="s m" x="-13" y="-13" width="26" height="26" rx="3"/></g><path class="s" d="M338 138 h50 v-42 h34"/><path class="s sa" d="M338 162 h30 M392 162 h30"/><path class="s" d="M262 150 h-40 v60 h60"/><rect class="s w" x="408" y="82" width="34" height="26" rx="3"/><rect class="s w" x="422" y="150" width="28" height="24" rx="3"/><circle class="s w" cx="292" cy="210" r="9"/><rect class="s d" x="208" y="84" width="9" height="30" rx="2"/><rect class="s d" x="224" y="84" width="9" height="30" rx="2"/><rect class="s d" x="240" y="84" width="9" height="30" rx="2"/><rect class="s d" x="256" y="84" width="9" height="30" rx="2"/></g>
</svg>
