<svg xmlns="http://www.w3.org/2000/svg" viewBox="0 0 640 360" role="img" aria-label="Cover illustration for bhagyangr-five-paise-of-every-copper-rupee">
<style>.s{fill:none;stroke:#12395c;stroke-width:3.5;stroke-linecap:round;stroke-linejoin:round}.t{stroke-width:2}.sa{stroke:#c2571a}.sm{stroke:#7cc4f5}.dash{stroke-dasharray:14 12}.w{fill:#fff}.l{fill:#c3e4fb}.m{fill:#7cc4f5}.d{fill:#12395c}.a{fill:#c2571a}</style>
<rect width="640" height="360" fill="#dcecfb"/>
<g stroke="#12395c" stroke-opacity=".07" stroke-width="1"><line x1="40" y1="0" x2="40" y2="360"/><line x1="80" y1="0" x2="80" y2="360"/><line x1="120" y1="0" x2="120" y2="360"/><line x1="160" y1="0" x2="160" y2="360"/><line x1="200" y1="0" x2="200" y2="360"/><line x1="240" y1="0" x2="240" y2="360"/><line x1="280" y1="0" x2="280" y2="360"/><line x1="320" y1="0" x2="320" y2="360"/><line x1="360" y1="0" x2="360" y2="360"/><line x1="400" y1="0" x2="400" y2="360"/><line x1="440" y1="0" x2="440" y2="360"/><line x1="480" y1="0" x2="480" y2="360"/><line x1="520" y1="0" x2="520" y2="360"/><line x1="560" y1="0" x2="560" y2="360"/><line x1="600" y1="0" x2="600" y2="360"/><line x1="0" y1="40" x2="640" y2="40"/><line x1="0" y1="80" x2="640" y2="80"/><line x1="0" y1="120" x2="640" y2="120"/><line x1="0" y1="160" x2="640" y2="160"/><line x1="0" y1="200" x2="640" y2="200"/><line x1="0" y1="240" x2="640" y2="240"/><line x1="0" y1="280" x2="640" y2="280"/><line x1="0" y1="320" x2="640" y2="320"/></g>
<g transform="translate(320 150) scale(1.12) translate(-320 -150)"><line class="s" x1="160" y1="240" x2="500" y2="240"/><circle class="s l" cx="228" cy="140" r="60"/><path class="s sa" d="M222 140 a6 6 0 0 0 12 0 a12 12 0 0 0 -24 0 a18 18 0 0 0 36 0 a24 24 0 0 0 -48 0 a30 30 0 0 0 60 0 a36 36 0 0 0 -72 0 a42 42 0 0 0 84 0 a48 48 0 0 0 -96 0 a54 54 0 0 0 54 54"/><rect class="s a" x="228" y="194" width="120" height="8" rx="2"/><path class="s w" d="M380 196 h90 l20 -12 h-90 z"/><path class="s l" d="M470 196 l20 -12 v14 l-20 12 z"/><rect class="s a" x="380" y="196" width="90" height="14" rx="0"/><path class="s w" d="M380 182 h90 l20 -12 h-90 z"/><path class="s l" d="M470 182 l20 -12 v14 l-20 12 z"/><rect class="s a" x="380" y="182" width="90" height="14" rx="0"/><path class="s w" d="M380 168 h90 l20 -12 h-90 z"/><path class="s l" d="M470 168 l20 -12 v14 l-20 12 z"/><rect class="s a" x="380" y="168" width="90" height="14" rx="0"/><rect class="s w" x="370" y="210" width="130" height="10" rx="2"/><line class="s" x1="380" y1="220" x2="380" y2="240"/><line class="s" x1="490" y1="220" x2="490" y2="240"/><circle class="s a" cx="312" cy="230" r="10"/><circle class="s a" cx="334" cy="230" r="10"/><circle class="s a" cx="323" cy="213" r="10"/></g>
</svg>
