<svg xmlns="http://www.w3.org/2000/svg" viewBox="0 0 640 360" role="img" aria-label="Cover illustration for shilpamed-guest-list-late">
<style>.s{fill:none;stroke:#74202b;stroke-width:3.5;stroke-linecap:round;stroke-linejoin:round}.t{stroke-width:2}.sa{stroke:#12395c}.sm{stroke:#ea7c88}.dash{stroke-dasharray:14 12}.w{fill:#fff}.l{fill:#f6bcc2}.m{fill:#ea7c88}.d{fill:#74202b}.a{fill:#12395c}</style>
<rect width="640" height="360" fill="#fadcdc"/>
<g stroke="#74202b" stroke-opacity=".07" stroke-width="1"><line x1="40" y1="0" x2="40" y2="360"/><line x1="80" y1="0" x2="80" y2="360"/><line x1="120" y1="0" x2="120" y2="360"/><line x1="160" y1="0" x2="160" y2="360"/><line x1="200" y1="0" x2="200" y2="360"/><line x1="240" y1="0" x2="240" y2="360"/><line x1="280" y1="0" x2="280" y2="360"/><line x1="320" y1="0" x2="320" y2="360"/><line x1="360" y1="0" x2="360" y2="360"/><line x1="400" y1="0" x2="400" y2="360"/><line x1="440" y1="0" x2="440" y2="360"/><line x1="480" y1="0" x2="480" y2="360"/><line x1="520" y1="0" x2="520" y2="360"/><line x1="560" y1="0" x2="560" y2="360"/><line x1="600" y1="0" x2="600" y2="360"/><line x1="0" y1="40" x2="640" y2="40"/><line x1="0" y1="80" x2="640" y2="80"/><line x1="0" y1="120" x2="640" y2="120"/><line x1="0" y1="160" x2="640" y2="160"/><line x1="0" y1="200" x2="640" y2="200"/><line x1="0" y1="240" x2="640" y2="240"/><line x1="0" y1="280" x2="640" y2="280"/><line x1="0" y1="320" x2="640" y2="320"/></g>
<g transform="translate(320 150) scale(1.12) translate(-320 -150)"><g transform="translate(230 160)"><rect class="s w" x="-34" y="-40" width="68" height="120" rx="10"/><rect class="s l" x="-34" y="20" width="68" height="60" rx="10"/><rect class="s w" x="-22" y="-62" width="44" height="22" rx="3"/><rect class="s d" x="-28" y="-78" width="56" height="18" rx="4"/><rect class="s t w" x="-22" y="-18" width="44" height="26" rx="2"/></g><g transform="translate(420 150)"><rect class="s w" x="-70" y="-64" width="140" height="132" rx="10"/><rect class="s m" x="-70" y="-64" width="140" height="34" rx="10"/><line class="s" x1="-40" y1="-78" x2="-40" y2="-52"/><line class="s" x1="40" y1="-78" x2="40" y2="-52"/><rect class="s t w" x="-52" y="-16" width="18" height="18" rx="3"/><rect class="s t w" x="-24" y="-16" width="18" height="18" rx="3"/><rect class="s t w" x="4" y="-16" width="18" height="18" rx="3"/><rect class="s t w" x="32" y="-16" width="18" height="18" rx="3"/><rect class="s t w" x="-52" y="16" width="18" height="18" rx="3"/><rect class="s t w" x="-24" y="16" width="18" height="18" rx="3"/><rect class="s a" x="4" y="16" width="18" height="18" rx="3"/><rect class="s t w" x="32" y="16" width="18" height="18" rx="3"/></g></g>
</svg>
