<svg xmlns="http://www.w3.org/2000/svg" viewBox="0 0 640 360" role="img" aria-label="Cover illustration for stltech-signed-lease-rent">
<style>.s{fill:none;stroke:#3a1f8a;stroke-width:3.5;stroke-linecap:round;stroke-linejoin:round}.t{stroke-width:2}.sa{stroke:#e07a1f}.sm{stroke:#7044e6}.dash{stroke-dasharray:14 12}.w{fill:#fff}.l{fill:#d3c7f8}.m{fill:#7044e6}.d{fill:#3a1f8a}.a{fill:#e07a1f}</style>
<rect width="640" height="360" fill="#e7e0fb"/>
<g stroke="#3a1f8a" stroke-opacity=".07" stroke-width="1"><line x1="40" y1="0" x2="40" y2="360"/><line x1="80" y1="0" x2="80" y2="360"/><line x1="120" y1="0" x2="120" y2="360"/><line x1="160" y1="0" x2="160" y2="360"/><line x1="200" y1="0" x2="200" y2="360"/><line x1="240" y1="0" x2="240" y2="360"/><line x1="280" y1="0" x2="280" y2="360"/><line x1="320" y1="0" x2="320" y2="360"/><line x1="360" y1="0" x2="360" y2="360"/><line x1="400" y1="0" x2="400" y2="360"/><line x1="440" y1="0" x2="440" y2="360"/><line x1="480" y1="0" x2="480" y2="360"/><line x1="520" y1="0" x2="520" y2="360"/><line x1="560" y1="0" x2="560" y2="360"/><line x1="600" y1="0" x2="600" y2="360"/><line x1="0" y1="40" x2="640" y2="40"/><line x1="0" y1="80" x2="640" y2="80"/><line x1="0" y1="120" x2="640" y2="120"/><line x1="0" y1="160" x2="640" y2="160"/><line x1="0" y1="200" x2="640" y2="200"/><line x1="0" y1="240" x2="640" y2="240"/><line x1="0" y1="280" x2="640" y2="280"/><line x1="0" y1="320" x2="640" y2="320"/></g>
<g transform="translate(320 150) scale(1.12) translate(-320 -150)"><g transform="translate(240 150)"><circle class="s l" cx="0" cy="0" r="80"/><circle class="s w" cx="0" cy="0" r="60"/><circle class="s l" cx="36" cy="0" r="14"/><circle class="s m" cx="18" cy="31.2" r="14"/><circle class="s l" cx="-18" cy="31.2" r="14"/><circle class="s m" cx="-36" cy="0" r="14"/><circle class="s l" cx="-18" cy="-31.2" r="14"/><circle class="s m" cx="18" cy="-31.2" r="14"/><circle class="s d" cx="0" cy="0" r="12"/></g><path class="s sa" d="M320 150 h46"/><g transform="translate(450 150)"><rect class="s w" x="-72" y="-84" width="144" height="168" rx="6"/><rect class="s l" x="-56" y="-68" width="112" height="34" rx="3"/><circle class="d" cx="38" cy="-51" r="4"/><line class="s t" x1="-44" y1="-51" x2="10" y2="-51"/><rect class="s l" x="-56" y="-20" width="112" height="34" rx="3"/><circle class="a" cx="38" cy="-3" r="4"/><line class="s t" x1="-44" y1="-3" x2="10" y2="-3"/><rect class="s l" x="-56" y="28" width="112" height="34" rx="3"/><circle class="d" cx="38" cy="45" r="4"/><line class="s t" x1="-44" y1="45" x2="10" y2="45"/></g></g>
</svg>
