<svg xmlns="http://www.w3.org/2000/svg" viewBox="0 0 640 360" role="img" aria-label="Cover illustration for unimech-hangar-twice-its-fleet">
<style>.s{fill:none;stroke:#5f3606;stroke-width:3.5;stroke-linecap:round;stroke-linejoin:round}.t{stroke-width:2}.sa{stroke:#0f766e}.sm{stroke:#eda63a}.dash{stroke-dasharray:14 12}.w{fill:#fff}.l{fill:#f8d792}.m{fill:#eda63a}.d{fill:#5f3606}.a{fill:#0f766e}</style>
<rect width="640" height="360" fill="#fbe8c6"/>
<g stroke="#5f3606" stroke-opacity=".07" stroke-width="1"><line x1="40" y1="0" x2="40" y2="360"/><line x1="80" y1="0" x2="80" y2="360"/><line x1="120" y1="0" x2="120" y2="360"/><line x1="160" y1="0" x2="160" y2="360"/><line x1="200" y1="0" x2="200" y2="360"/><line x1="240" y1="0" x2="240" y2="360"/><line x1="280" y1="0" x2="280" y2="360"/><line x1="320" y1="0" x2="320" y2="360"/><line x1="360" y1="0" x2="360" y2="360"/><line x1="400" y1="0" x2="400" y2="360"/><line x1="440" y1="0" x2="440" y2="360"/><line x1="480" y1="0" x2="480" y2="360"/><line x1="520" y1="0" x2="520" y2="360"/><line x1="560" y1="0" x2="560" y2="360"/><line x1="600" y1="0" x2="600" y2="360"/><line x1="0" y1="40" x2="640" y2="40"/><line x1="0" y1="80" x2="640" y2="80"/><line x1="0" y1="120" x2="640" y2="120"/><line x1="0" y1="160" x2="640" y2="160"/><line x1="0" y1="200" x2="640" y2="200"/><line x1="0" y1="240" x2="640" y2="240"/><line x1="0" y1="280" x2="640" y2="280"/><line x1="0" y1="320" x2="640" y2="320"/></g>
<g transform="translate(320 150) scale(1.12) translate(-320 -150)"><path class="s l" d="M230 78 L430 100 Q458 104 458 130 L458 150 Q458 176 430 180 L230 202 Z"/><path class="s w" d="M458 124 L500 140 L458 156"/><ellipse class="s w" cx="230" cy="140" rx="30" ry="62"/><ellipse class="s m" cx="230" cy="140" rx="20" ry="44"/><line class="s t" x1="230" y1="140" x2="248" y2="140"/><line class="s t" x1="230" y1="140" x2="239" y2="174.6"/><line class="s t" x1="230" y1="140" x2="221" y2="174.6"/><line class="s t" x1="230" y1="140" x2="212" y2="140"/><line class="s t" x1="230" y1="140" x2="221" y2="105.4"/><line class="s t" x1="230" y1="140" x2="239" y2="105.4"/><circle class="s d" cx="230" cy="140" r="8"/><path class="s sa" d="M340 89 Q354 140 340 191"/><line class="s" x1="300" y1="196" x2="300" y2="236"/><line class="s" x1="404" y1="184" x2="404" y2="236"/><rect class="s d" x="282" y="190" width="36" height="10" rx="3"/><rect class="s d" x="386" y="178" width="36" height="10" rx="3"/><rect class="s w" x="180" y="236" width="300" height="14" rx="4"/><circle class="s d" cx="206" cy="260" r="9"/><circle class="s d" cx="454" cy="260" r="9"/></g>
</svg>
