<svg xmlns="http://www.w3.org/2000/svg" viewBox="0 0 640 360" role="img" aria-label="Cover illustration for welcorp-stitching-promise-holds">
<style>.s{fill:none;stroke:#1f2a3a;stroke-width:3.5;stroke-linecap:round;stroke-linejoin:round}.t{stroke-width:2}.sa{stroke:#c2571a}.sm{stroke:#93a3b8}.dash{stroke-dasharray:14 12}.w{fill:#fff}.l{fill:#cbd5e1}.m{fill:#93a3b8}.d{fill:#1f2a3a}.a{fill:#c2571a}</style>
<rect width="640" height="360" fill="#e1e7ee"/>
<g stroke="#1f2a3a" stroke-opacity=".07" stroke-width="1"><line x1="40" y1="0" x2="40" y2="360"/><line x1="80" y1="0" x2="80" y2="360"/><line x1="120" y1="0" x2="120" y2="360"/><line x1="160" y1="0" x2="160" y2="360"/><line x1="200" y1="0" x2="200" y2="360"/><line x1="240" y1="0" x2="240" y2="360"/><line x1="280" y1="0" x2="280" y2="360"/><line x1="320" y1="0" x2="320" y2="360"/><line x1="360" y1="0" x2="360" y2="360"/><line x1="400" y1="0" x2="400" y2="360"/><line x1="440" y1="0" x2="440" y2="360"/><line x1="480" y1="0" x2="480" y2="360"/><line x1="520" y1="0" x2="520" y2="360"/><line x1="560" y1="0" x2="560" y2="360"/><line x1="600" y1="0" x2="600" y2="360"/><line x1="0" y1="40" x2="640" y2="40"/><line x1="0" y1="80" x2="640" y2="80"/><line x1="0" y1="120" x2="640" y2="120"/><line x1="0" y1="160" x2="640" y2="160"/><line x1="0" y1="200" x2="640" y2="200"/><line x1="0" y1="240" x2="640" y2="240"/><line x1="0" y1="280" x2="640" y2="280"/><line x1="0" y1="320" x2="640" y2="320"/></g>
<g transform="translate(320 150) scale(1.12) translate(-320 -150)"><path class="s l" d="M196 96 h250 v120 h-250 z"/><path class="s t" d="M236 96 q26 60 0 120"/><path class="s t" d="M282 96 q26 60 0 120"/><path class="s t" d="M328 96 q26 60 0 120"/><path class="s t" d="M374 96 q26 60 0 120"/><path class="s t" d="M420 96 q26 60 0 120"/><ellipse class="s l" cx="446" cy="156" rx="26" ry="60"/><ellipse class="s w" cx="196" cy="156" rx="26" ry="60"/><ellipse class="s m" cx="196" cy="156" rx="15" ry="42"/><path class="s sa" d="M300 60 l10 22 l10 -22"/><line class="s sa" x1="310" y1="40" x2="310" y2="60"/><line class="s" x1="150" y1="240" x2="500" y2="240"/></g>
</svg>
